<?xml version="1.0" encoding="utf-8"?><svg xmlns="http://www.w3.org/2000/svg" xmlns:xlink="http://www.w3.org/1999/xlink"><symbol viewBox="0 0 21 21" id="basket" xmlns="http://www.w3.org/2000/svg"><defs><path id="aa" d="M1190.777 91.048c.185.242.255.531.208.869l-.88 5.257a1 1 0 0 1-.359.674 1.061 1.061 0 0 1-.706.266h-12.835l-.255 1.495h12.232c.294 0 .549.108.765.325a1.1 1.1 0 0 1 .324.809c0 .321-.108.59-.324.807a1.043 1.043 0 0 1-.765.326h-13.529c-.324 0-.602-.137-.834-.41a1.204 1.204 0 0 1-.255-.94l.58-3.28-.88-9.212-2.503-.82a1.037 1.037 0 0 1-.637-.554 1.242 1.242 0 0 1-.081-.868 1.05 1.05 0 0 1 .544-.664c.27-.136.545-.164.823-.084l3.197 1.061a.98.98 0 0 1 .498.362c.131.177.212.377.243.603l.185 1.832 14.503 1.689c.324.048.571.2.741.457zm-14.48 11.455c.464 0 .858.169 1.182.506.325.338.487.748.487 1.23s-.162.896-.487 1.242a1.56 1.56 0 0 1-1.181.519 1.56 1.56 0 0 1-1.182-.519 1.751 1.751 0 0 1-.486-1.242c0-.482.162-.892.486-1.23a1.577 1.577 0 0 1 1.182-.506zm9.893 0c.463 0 .857.169 1.182.506.324.338.486.748.486 1.23s-.162.896-.486 1.242a1.56 1.56 0 0 1-1.182.519 1.56 1.56 0 0 1-1.181-.519 1.751 1.751 0 0 1-.487-1.242c0-.482.162-.892.487-1.23a1.577 1.577 0 0 1 1.181-.506z"/></defs><use xlink:href="#aa" transform="translate(-1170 -85)"/></symbol><symbol viewBox="0 0 344.96 344.96" id="check" xmlns="http://www.w3.org/2000/svg"><g data-name="Слой 2"><path d="M321.85 86.24l-40-23.11-23.1-40H212.5L172.48 0l-40 23.11H86.24l-23.11 40-40 23.1v46.21L0 172.48l23.11 40v46.21l40 23.11 23.11 40h46.21l40 23.1 40-23.11h46.21l23.11-40 40-23.11V212.5l23.11-40-23.11-40V86.24zM156.91 243.07a16.79 16.79 0 0 1-23.34 0l-50.45-50.44a16.19 16.19 0 0 1 0-22.89l13.35-13.35a16.19 16.19 0 0 1 22.89 0l25.87 25.87 80.34-80.35a16.19 16.19 0 0 1 22.89 0l13.35 13.35a16.19 16.19 0 0 1 0 22.89z" data-name="Capa 1"/></g></symbol><symbol viewBox="0 0 15 28" id="chevron-left" xmlns="http://www.w3.org/2000/svg"><defs><path id="ca" d="M532.31 2869.71c.193.193.435.29.7.29a.99.99 0 0 0 .7-1.69L521.393 2856l12.319-12.312a.99.99 0 1 0-1.401-1.4l-13.02 13.011a.99.99 0 0 0 0 1.4z"/></defs><use xlink:href="#ca" transform="translate(-519 -2842)"/></symbol><symbol viewBox="0 0 15 28" id="chevron-right" xmlns="http://www.w3.org/2000/svg"><defs><path id="da" d="M1068.69 2869.71a.967.967 0 0 1-.7.29.99.99 0 0 1-.7-1.69l12.318-12.31-12.319-12.312a.99.99 0 1 1 1.401-1.4l13.02 13.011a.99.99 0 0 1 0 1.4z"/></defs><use xlink:href="#da" transform="translate(-1067 -2842)"/></symbol><symbol viewBox="0 0 13 13" id="close" xmlns="http://www.w3.org/2000/svg"><defs><path id="ea" d="M1310.03 362.486l4.631-4.632a1.091 1.091 0 1 0-1.544-1.543l-4.63 4.631-4.632-4.631a1.092 1.092 0 1 0-1.544 1.543l4.631 4.632-4.631 4.631a1.092 1.092 0 0 0 1.544 1.544l4.631-4.631 4.631 4.631a1.092 1.092 0 0 0 1.544-1.544z"/></defs><use xlink:href="#ea" transform="translate(-1302 -356)"/></symbol><symbol viewBox="0 0 25 20" id="head-i-1" xmlns="http://www.w3.org/2000/svg"><defs><path id="fa" d="M520 36.286v15.238a.482.482 0 0 1-.488.476h-4.422c-.26 0-.103-.684-.09-.97.021.01.051.017.09.017h.027v-.952h-15.234v.952h.027c.27 0 .09.69.09.953v.014a.251.251 0 0 0-.09-.014h-4.422a.482.482 0 0 1-.488-.476V36.286c0-.264.219-.477.488-.477h.002a2.33 2.33 0 0 1-.49-1.428c0-1.313 1.095-2.381 2.441-2.381 1.347 0 2.442 1.068 2.442 2.38a2.33 2.33 0 0 1-.49 1.43h.002c.27 0 .488.212.488.476v1.692a14.37 14.37 0 0 1 1.725-.916v-.776c0-.264.219-.477.488-.477.27 0 .489.213.489.477v.382a14.092 14.092 0 0 1 1.725-.503v-.992c0-.263.219-.476.488-.476.27 0 .488.213.488.476v.806a14.48 14.48 0 0 1 1.726-.161V34.38c0-.263.218-.477.488-.477s.488.214.488.477v1.437c.58.02 1.155.073 1.725.161v-.806c0-.263.219-.476.489-.476s.488.213.488.476v.992a14.43 14.43 0 0 1 1.725.503v-.382c0-.264.219-.477.488-.477.27 0 .489.213.489.477v.776c.596.266 1.172.572 1.725.916v-1.692c0-.264.219-.477.488-.477h.002a2.33 2.33 0 0 1-.49-1.428c0-1.313 1.095-2.381 2.442-2.381 1.346 0 2.441 1.068 2.441 2.38a2.33 2.33 0 0 1-.49 1.43h.002c.27 0 .488.212.488.476zM515 51v.03c-.132-.06 0-.255 0-.03zm-15 1.014c.129.05.005.204 0 0zm-1.094-15.252h-.976v1.995a.482.482 0 0 1-.489.476.482.482 0 0 1-.488-.476v-1.995h-.976v14.285h2.93zm0-2.381c0-.788-.657-1.429-1.465-1.429-.807 0-1.464.64-1.464 1.429 0 .788.657 1.428 1.464 1.428.808 0 1.465-.64 1.465-1.428zm2.702 3.733c-.596.292-1.173.629-1.725 1.01v10.018h1.725zm2.702 11.029V37.14c-.588.142-1.164.324-1.725.544v11.459zm2.702-12.372c-.583.02-1.158.078-1.726.17v12.202h1.726zm2.701.17a13.692 13.692 0 0 0-1.725-.17v12.371h1.725zm2.702.744a13.17 13.17 0 0 0-1.725-.545v12.003h1.725zm2.702 1.44a13.304 13.304 0 0 0-1.725-1.01v11.027h1.725zm3.906-2.363h-.976v1.995a.482.482 0 0 1-.488.476.482.482 0 0 1-.489-.476v-1.995h-.976v14.285h2.93zm0-2.381c0-.788-.657-1.429-1.464-1.429-.808 0-1.465.64-1.465 1.429 0 .788.657 1.428 1.465 1.428.807 0 1.464-.64 1.464-1.428zm-21.093 5.744v.011a.482.482 0 0 1-.489.476.482.482 0 0 1-.488-.476v-.011c0-.263.219-.476.488-.476.27 0 .489.213.489.476zm20.117 0v.011a.482.482 0 0 1-.488.476.482.482 0 0 1-.489-.476v-.011c0-.263.219-.476.489-.476s.488.213.488.476z"/></defs><use xlink:href="#fa" transform="translate(-495 -32)"/></symbol><symbol viewBox="0 0 25 15" id="head-i-2" xmlns="http://www.w3.org/2000/svg"><defs><path id="ga" d="M520 90.605v4.878a.5.5 0 0 1-.498.502h-2.546A2.504 2.504 0 0 1 514.512 98a2.504 2.504 0 0 1-2.444-2.015h-10.082A2.504 2.504 0 0 1 499.542 98a2.504 2.504 0 0 1-2.444-2.015h-1.6a.5.5 0 0 1-.498-.502v-11.98a.5.5 0 0 1 .498-.503h15.337a.5.5 0 0 1 .498.502v.664h4.145c.963 0 1.788.66 2.007 1.606l.824 3.554 1.443.845c.153.09.248.255.248.434zm-18.96 4.878c0-.834-.672-1.512-1.498-1.512s-1.498.678-1.498 1.512c0 .833.672 1.512 1.498 1.512s1.498-.678 1.498-1.512zm9.297-2.305v-.797h-14.341v2.6h1.102a2.504 2.504 0 0 1 2.444-2.015c1.205 0 2.213.866 2.444 2.014h8.351v-.797h-4.492a.5.5 0 0 1-.498-.503.5.5 0 0 1 .498-.502zm0-9.173h-14.341v7.37h14.341zm3.885 1.166v3.978h3.024l-.73-3.147a1.063 1.063 0 0 0-1.038-.83zm1.788 10.312c0-.834-.672-1.512-1.498-1.512-.792 0-1.443.624-1.494 1.411a.505.505 0 0 1 0 .201 1.506 1.506 0 0 0 1.494 1.412c.826 0 1.498-.678 1.498-1.512zm2.994-3.42h-.948v.532h.948zm0-1.006v-.162l-1.265-.74h-4.015a.5.5 0 0 1-.498-.503v-4.48h-1.893v9.808h.735a2.504 2.504 0 0 1 2.444-2.014c1.205 0 2.213.866 2.444 2.014h2.048V93.6h-1.446a.5.5 0 0 1-.498-.503V91.56a.5.5 0 0 1 .498-.503zm-14.341 2.623a.5.5 0 0 1-.498.503h-.42a.5.5 0 0 1-.499-.503.5.5 0 0 1 .498-.502h.42a.5.5 0 0 1 .499.502z"/></defs><use xlink:href="#ga" transform="translate(-495 -83)"/></symbol></svg>