<svg xmlns="http://www.w3.org/2000/svg" xmlns:xlink="http://www.w3.org/1999/xlink" width="21" height="21" viewBox="0 0 21 21"><defs><path id="r2pba" d="M1190.777 91.048c.185.242.255.531.208.869l-.88 5.257a1 1 0 0 1-.359.674 1.061 1.061 0 0 1-.706.266h-12.835l-.255 1.495h12.232c.294 0 .549.108.765.325a1.1 1.1 0 0 1 .324.809c0 .321-.108.59-.324.807a1.043 1.043 0 0 1-.765.326h-13.529c-.324 0-.602-.137-.834-.41a1.204 1.204 0 0 1-.255-.94l.58-3.28-.88-9.212-2.503-.82a1.037 1.037 0 0 1-.637-.554 1.242 1.242 0 0 1-.081-.868 1.05 1.05 0 0 1 .544-.664c.27-.136.545-.164.823-.084l3.197 1.061a.98.98 0 0 1 .498.362c.131.177.212.377.243.603l.185 1.832 14.503 1.689c.324.048.571.2.741.457zm-14.48 11.455c.464 0 .858.169 1.182.506.325.338.487.748.487 1.23s-.162.896-.487 1.242a1.56 1.56 0 0 1-1.181.519 1.56 1.56 0 0 1-1.182-.519 1.751 1.751 0 0 1-.486-1.242c0-.482.162-.892.486-1.23a1.577 1.577 0 0 1 1.182-.506zm9.893 0c.463 0 .857.169 1.182.506.324.338.486.748.486 1.23s-.162.896-.486 1.242a1.56 1.56 0 0 1-1.182.519 1.56 1.56 0 0 1-1.181-.519 1.751 1.751 0 0 1-.487-1.242c0-.482.162-.892.487-1.23a1.577 1.577 0 0 1 1.181-.506z"/></defs><g><g transform="translate(-1170 -85)"><use fill="#d91619" xlink:href="#r2pba"/></g></g></svg>