<svg xmlns="http://www.w3.org/2000/svg" xmlns:xlink="http://www.w3.org/1999/xlink" width="25" height="20" viewBox="0 0 25 20"><defs><path id="vgwga" d="M520 36.286v15.238a.482.482 0 0 1-.488.476h-4.422c-.26 0-.103-.684-.09-.97.021.01.051.017.09.017h.027v-.952h-15.234v.952h.027c.27 0 .09.69.09.953v.014a.251.251 0 0 0-.09-.014h-4.422a.482.482 0 0 1-.488-.476V36.286c0-.264.219-.477.488-.477h.002a2.33 2.33 0 0 1-.49-1.428c0-1.313 1.095-2.381 2.441-2.381 1.347 0 2.442 1.068 2.442 2.38a2.33 2.33 0 0 1-.49 1.43h.002c.27 0 .488.212.488.476v1.692c.553-.344 1.13-.65 1.725-.916v-.776c0-.264.219-.477.488-.477.27 0 .489.213.489.477v.382a14.092 14.092 0 0 1 1.725-.503v-.992c0-.263.219-.476.488-.476.27 0 .488.213.488.476v.806a14.48 14.48 0 0 1 1.726-.161V34.38c0-.263.218-.477.488-.477s.488.214.488.477v1.437c.58.02 1.155.073 1.725.161v-.806c0-.263.219-.476.489-.476s.488.213.488.476v.992a14.43 14.43 0 0 1 1.725.503v-.382c0-.264.219-.477.488-.477.27 0 .489.213.489.477v.776c.596.266 1.172.572 1.725.916v-1.692c0-.264.219-.477.488-.477h.002a2.33 2.33 0 0 1-.49-1.428c0-1.313 1.095-2.381 2.442-2.381 1.346 0 2.441 1.068 2.441 2.38a2.33 2.33 0 0 1-.49 1.43h.002c.27 0 .488.212.488.476zM515 51v.03c-.132-.06 0-.255 0-.03zm-15 1.014c.129.05.005.204 0 0zm-1.094-15.252h-.976v1.995a.482.482 0 0 1-.489.476.482.482 0 0 1-.488-.476v-1.995h-.976v14.285h2.93zm0-2.381c0-.788-.657-1.429-1.465-1.429-.807 0-1.464.64-1.464 1.429 0 .788.657 1.428 1.464 1.428.808 0 1.465-.64 1.465-1.428zm2.702 3.733c-.596.292-1.173.629-1.725 1.01v10.018h1.725zm2.702 11.029V37.14c-.588.142-1.164.324-1.725.544v11.459zm2.702-12.372c-.583.02-1.158.078-1.726.17v12.202h1.726zm2.701.17a13.692 13.692 0 0 0-1.725-.17v12.371h1.725zm2.702.744a13.17 13.17 0 0 0-1.725-.545v12.003h1.725zm2.702 1.44c-.552-.382-1.13-.719-1.725-1.01v11.027h1.725zm3.906-2.363h-.976v1.995a.482.482 0 0 1-.488.476.482.482 0 0 1-.489-.476v-1.995h-.976v14.285h2.93zm0-2.381c0-.788-.657-1.429-1.464-1.429-.808 0-1.465.64-1.465 1.429 0 .788.657 1.428 1.465 1.428.807 0 1.464-.64 1.464-1.428zm-21.093 5.744v.011a.482.482 0 0 1-.489.476.482.482 0 0 1-.488-.476v-.011c0-.263.219-.476.488-.476.27 0 .489.213.489.476zm20.117 0v.011a.482.482 0 0 1-.488.476.482.482 0 0 1-.489-.476v-.011c0-.263.219-.476.489-.476s.488.213.488.476z"/></defs><g><g transform="translate(-495 -32)"><use fill="#d91619" xlink:href="#vgwga"/></g></g></svg>