<svg xmlns="http://www.w3.org/2000/svg" xmlns:xlink="http://www.w3.org/1999/xlink" width="25" height="15" viewBox="0 0 25 15"><defs><path id="g0joa" d="M520 90.605v4.878a.5.5 0 0 1-.498.502h-2.546A2.504 2.504 0 0 1 514.512 98a2.504 2.504 0 0 1-2.444-2.015h-10.082A2.504 2.504 0 0 1 499.542 98a2.504 2.504 0 0 1-2.444-2.015h-1.6a.5.5 0 0 1-.498-.502v-11.98a.5.5 0 0 1 .498-.503h15.337a.5.5 0 0 1 .498.502v.664h4.145c.963 0 1.788.66 2.007 1.606l.824 3.554 1.443.845c.153.09.248.255.248.434zm-18.96 4.878c0-.834-.672-1.512-1.498-1.512s-1.498.678-1.498 1.512c0 .833.672 1.512 1.498 1.512s1.498-.678 1.498-1.512zm9.297-2.305v-.797h-14.341v2.6h1.102a2.504 2.504 0 0 1 2.444-2.015c1.205 0 2.213.866 2.444 2.014h8.351v-.797h-4.492a.5.5 0 0 1-.498-.503.5.5 0 0 1 .498-.502zm0-9.173h-14.341v7.37h14.341zm3.885 1.166v3.978h3.024l-.73-3.147a1.063 1.063 0 0 0-1.038-.83zm1.788 10.312c0-.834-.672-1.512-1.498-1.512-.792 0-1.443.624-1.494 1.411a.505.505 0 0 1 0 .201 1.506 1.506 0 0 0 1.494 1.412c.826 0 1.498-.678 1.498-1.512zm2.994-3.42h-.948v.532h.948zm0-1.006v-.162l-1.265-.74h-4.015a.5.5 0 0 1-.498-.503v-4.48h-1.893v9.808h.735a2.504 2.504 0 0 1 2.444-2.014c1.205 0 2.213.866 2.444 2.014h2.048V93.6h-1.446a.5.5 0 0 1-.498-.503V91.56a.5.5 0 0 1 .498-.503zm-14.341 2.623a.5.5 0 0 1-.498.503h-.42a.5.5 0 0 1-.499-.503.5.5 0 0 1 .498-.502h.42a.5.5 0 0 1 .499.502z"/></defs><g><g transform="translate(-495 -83)"><use fill="#d91619" xlink:href="#g0joa"/></g></g></svg>