<svg 
 xmlns="http://www.w3.org/2000/svg"
 xmlns:xlink="http://www.w3.org/1999/xlink"
 width="18px" height="24px">
<path fill-rule="evenodd"  fill="rgb(255, 255, 255)"
 d="M9.316,23.941 C9.272,23.962 9.222,23.969 9.177,23.969 C9.126,23.969 9.082,23.962 9.036,23.942 C8.683,23.788 0.352,20.133 0.348,15.339 L0.338,3.628 C0.338,3.441 0.491,3.286 0.685,3.285 C7.622,3.279 8.823,0.662 8.831,0.635 C8.886,0.510 9.014,0.424 9.153,0.424 C9.155,0.424 9.158,0.424 9.158,0.424 C9.301,0.427 9.428,0.512 9.478,0.640 C9.489,0.665 10.669,3.277 17.633,3.271 C17.824,3.271 17.978,3.426 17.980,3.613 L17.990,15.324 C17.994,20.118 9.672,23.787 9.316,23.941 ZM16.073,14.644 L16.065,5.478 C16.065,5.330 15.945,5.208 15.793,5.209 C10.344,5.213 9.419,3.170 9.410,3.151 C9.370,3.049 9.272,2.983 9.161,2.981 C9.161,2.981 9.158,2.981 9.156,2.981 C9.047,2.981 8.948,3.048 8.905,3.147 C8.897,3.167 7.957,5.215 2.526,5.220 C2.375,5.220 2.254,5.342 2.254,5.490 L2.262,14.656 C2.265,18.407 8.790,21.271 9.064,21.390 C9.100,21.407 9.136,21.413 9.174,21.412 C9.209,21.412 9.248,21.407 9.282,21.390 C9.559,21.271 16.077,18.395 16.074,14.644 L16.073,14.644 ZM8.820,16.937 C8.797,16.996 8.746,17.036 8.686,17.049 C8.674,17.052 8.660,17.052 8.650,17.052 C8.601,17.052 8.554,17.036 8.520,16.998 L3.917,12.379 C3.880,12.341 5.265,11.123 5.333,11.170 L7.859,13.124 C8.842,11.980 11.262,9.405 14.620,7.366 C14.667,7.337 15.166,8.088 15.167,8.089 C15.198,8.160 15.178,8.242 15.123,8.294 C12.002,11.140 9.558,15.063 8.820,16.937 Z"/>
</svg>