<svg xmlns="http://www.w3.org/2000/svg" xmlns:xlink="http://www.w3.org/1999/xlink" width="9" height="7" viewBox="0 0 9 7"><defs><path id="3nz4a" d="M434.502 171.647l-3.367-4.457a.437.437 0 0 0-.348-.19.438.438 0 0 0-.348.19l-.295.39a.766.766 0 0 0-.144.461c0 .175.051.339.144.461l4.009 5.308c.092.123.217.19.349.19a.436.436 0 0 0 .35-.19l4.004-5.303a.765.765 0 0 0 .144-.46.765.765 0 0 0-.144-.462l-.295-.39c-.192-.255-.504-.255-.696 0z"/></defs><g><g transform="translate(-430 -167)"><use xlink:href="#3nz4a"/></g></g></svg>