<svg xmlns="http://www.w3.org/2000/svg" xmlns:xlink="http://www.w3.org/1999/xlink" width="28" height="39" viewBox="0 0 28 39"><defs><path id="z9h4a" d="M569.003 828.397v29.21c0 1.32-1.042 2.392-2.324 2.392h-23.36c-1.28 0-2.324-1.073-2.324-2.391v-34.214c0-1.318 1.043-2.392 2.324-2.392h19.07zm-6.065-.574h2.899l-2.899-3.242zm4.114 2.007h-5.09a.99.99 0 0 1-.976-1.003v-5.816H543.32a.377.377 0 0 0-.372.383v34.213c0 .211.166.384.372.384h23.36a.38.38 0 0 0 .373-.384zm-20.382 4.518l-2.036-8.26h1.48l.94 4.127c.133.576.26 1.16.37 1.7.125-.554.276-1.142.425-1.717l1.056-4.11h1.358l.964 4.138c.125.54.249 1.098.354 1.636.107-.48.227-.971.35-1.477l.045-.184 1.046-4.112h1.449l-2.275 8.26h-1.355l-.998-4.24a33.93 33.93 0 0 1-.32-1.467c-.104.466-.226.942-.374 1.475l-1.125 4.232h-1.354zm8.918-1.756h8.732c.404 0 .731.338.731.753a.742.742 0 0 1-.73.752h-8.733a.742.742 0 0 1-.731-.752c0-.415.327-.753.731-.753zm9.463 5.777a.742.742 0 0 1-.73.752h-18.176a.742.742 0 0 1-.73-.752c0-.416.327-.753.73-.753h18.175c.404 0 .731.337.731.753zm0 4.451a.742.742 0 0 1-.73.752h-18.176a.742.742 0 0 1-.73-.752c0-.415.327-.752.73-.752h18.175c.404 0 .731.337.731.752zm0 4.452a.742.742 0 0 1-.73.752h-18.176a.742.742 0 0 1-.73-.752c0-.416.327-.753.73-.753h18.175c.404 0 .731.337.731.753zm0 4.514a.742.742 0 0 1-.73.752h-18.176a.742.742 0 0 1-.73-.752c0-.416.327-.753.73-.753h18.175c.404 0 .731.337.731.753z"/></defs><g><g transform="translate(-541 -821)"><use fill="#d91619" xlink:href="#z9h4a"/></g></g></svg>