<svg xmlns="http://www.w3.org/2000/svg" xmlns:xlink="http://www.w3.org/1999/xlink" width="60" height="60" viewBox="0 0 60 60"><defs><path id="133ua" d="M364.522 2309.8c1.6 1.6 1.6 4.1 0 5.6-.8.8-1.801 1.2-2.802 1.2-1 0-2-.4-2.8-1.2-1.601-1.6-1.601-4.1 0-5.6 1.6-1.6 4.101-1.6 5.601 0zm-1.4 1.5c-.401-.4-.901-.6-1.402-.6-.5 0-1 .2-1.4.6-.8.8-.8 2 0 2.8.8.8 2 .8 2.801 0 .8-.8.8-2 0-2.8zm8.203 3l-8.004 8c-.4.5-1 .7-1.6.7-.6 0-1.201-.2-1.701-.7l-13.906-13.9-2.801-2.8-1.3-1.3-16.308 16.3c-.1.2-.4.3-.7.3-.098 0-.184-.012-.263-.033L313.2 2323h-.2c-.3 0-.5-.1-.7-.3-.2-.2-.3-.5-.3-.9l2.1-12c.087-.346.248-.615.548-.748l16.06-16.053-4.402-4.4-5.603-5.6-5.702-5.7-2.101-2.1c-1.2-1.2-1.2-3.1 0-4.2l7.103-7.1c1.1-1.1 3.101-1.1 4.202 0l17.807 17.8 7.103-7.1 4.202-4.2 6.102-6.1c.8-.8 1.901-1.3 3.102-1.3 1.2 0 2.3.5 3.101 1.3l5.102 5.1c1.7 1.7 1.7 4.5 0 6.2l-6.102 6.1-4.202 4.2-7.103 7.1 18.007 18c.9.9.9 2.4 0 3.3zm-13.106-29.101l-3.453-3.451-33.261 33.153 3.5 3.499zm-2.801-14.1l8.503 8.5 5.403-5.4c.9-.9.9-2.5 0-3.4l-5.103-5.1c-.9-.9-2.5-.9-3.401 0zm-4.202 4.2l8.504 8.5 2.8-2.8-4.251-4.25-4.252-4.25zm-19.108 16.3l8.504-8.5-17.808-17.8c-.2-.2-.5-.3-.7-.3-.3 0-.5.1-.7.3l-7.103 7.1c-.4.4-.4 1 0 1.4l1.4 1.4 3.502-3.5c.4-.4 1-.4 1.4 0 .4.4.4 1 0 1.4l-3.501 3.5 1.4 1.4 2.101-2.1c.4-.4 1-.4 1.4 0 .4.4.4 1 0 1.4l-2.1 2.1 1.5 1.5 3.502-3.5c.4-.4 1-.4 1.4 0 .4.4.4 1 0 1.4l-3.501 3.5 1.4 1.4 2.101-2.1c.4-.4 1.001-.4 1.401 0 .4.4.4 1 0 1.4l-2.1 2.1 1.4 1.4 3.501-3.5c.4-.4 1-.4 1.401 0 .4.4.4 1 0 1.4l-3.502 3.5 1.451 1.45 2.151-2.15c.4-.4 1-.4 1.4 0 .4.4.4 1 0 1.4l-2.15 2.15zm-15.506 18.4l3.452 3.452 33.262-33.153-3.5-3.5zm-2.301 10.7l8.618-1.485-3.616-3.615a1.04 1.04 0 0 1-.22-.319l-3.282-3.28zm55.623-8.3l-18.008-18-8.503 8.5.6.6 3.501-3.5c.4-.4 1-.4 1.401 0 .4.4.4 1 0 1.4l-3.502 3.5 1.401 1.4 2.101-2.1c.4-.4 1-.4 1.4 0 .4.4.4 1 0 1.4l-2.1 2.1 1.45 1.45 3.552-3.55c.4-.4 1-.4 1.4 0 .4.4.4 1 0 1.4l-3.551 3.55 10.354 10.35c.1.1.4.1.5 0l8.004-8c.1-.1.1-.4 0-.5z"/></defs><g><g transform="translate(-312 -2263)"><use fill="#d91619" xlink:href="#133ua"/></g></g></svg>