<svg xmlns="http://www.w3.org/2000/svg" xmlns:xlink="http://www.w3.org/1999/xlink" width="82" height="57" viewBox="0 0 82 57"><defs><path id="n75ba" d="M1266 2316.395v1.398c0 .924-.581 1.737-1.445 2.021-8.198 2.7-18.872 4.186-30.055 4.186s-21.857-1.487-30.055-4.186a2.116 2.116 0 0 1-1.445-2.021v-1.398c0-1.171.946-2.124 2.109-2.124h.068v-5.55c0-13.85 9.608-25.854 22.953-28.829.07-.716.375-1.382.88-1.91a3.16 3.16 0 0 1 2.3-.982h6.38a3.16 3.16 0 0 1 2.3.982c.505.528.81 1.194.88 1.91 13.345 2.975 22.953 14.98 22.953 28.83v5.55h.068c1.163 0 2.109.952 2.109 2.123zm-35.845-36.135l.938 27.405c.022.631.53 1.125 1.156 1.125h4.502c.626 0 1.134-.494 1.156-1.125l.938-27.405a1.16 1.16 0 0 0-1.156-1.205h-6.378a1.16 1.16 0 0 0-1.156 1.205zm33.804 37.533v-1.398a.068.068 0 0 0-.068-.068h-8.708c-.564 0-1.021-.46-1.021-1.028 0-.568.457-1.028 1.02-1.028h6.6v-5.55c0-10.328-5.743-19.553-14.416-24.233l-2.214 15.61a1.023 1.023 0 0 1-1.155.872c-.557-.08-.945-.6-.866-1.162l2.308-16.265a26.948 26.948 0 0 0-4.61-1.552l-.882 25.745a3.196 3.196 0 0 1-3.196 3.11h-4.502a3.196 3.196 0 0 1-3.195-3.11l-.882-25.745c-1.6.382-3.141.904-4.61 1.552l2.307 16.264a1.026 1.026 0 0 1-1.012 1.174c-.5 0-.936-.37-1.009-.883l-2.214-15.61c-8.672 4.68-14.416 13.905-14.416 24.234v5.549h37.079c.564 0 1.02.46 1.02 1.028 0 .567-.457 1.028-1.02 1.028h-39.188a.068.068 0 0 0-.068.068v1.398c0 .027.012.059.039.068 7.998 2.633 18.446 4.084 29.42 4.084s21.422-1.45 29.42-4.084c.027-.009.039-.04.039-.068zm-12.11-2.494c0 .568-.457 1.028-1.02 1.028h-2.178c-.564 0-1.02-.46-1.02-1.028 0-.568.457-1.028 1.02-1.028h2.177c.564 0 1.021.46 1.021 1.028zm-25.913-7.752a1.023 1.023 0 0 1-1.155-.872l-.31-2.194a1.026 1.026 0 0 1 .865-1.162c.559-.08 1.075.31 1.155.872l.311 2.193a1.027 1.027 0 0 1-.866 1.163zm18.594-3.066l-.311 2.193a1.023 1.023 0 0 1-1.155.873c-.558-.08-.945-.601-.866-1.163l.311-2.193c.08-.562.597-.953 1.155-.872.558.08.945.6.866 1.162zm6.256-31.504l.43-1.01 5.802 5.827h3.86l-.004-3.876-5.753-5.793 1.04-.418a9.69 9.69 0 0 1 3.633-.707c5.403 0 9.8 4.417 9.8 9.844a9.796 9.796 0 0 1-.526 3.163l14.698 14.767a4.211 4.211 0 0 1 1.234 2.994c0 1.13-.438 2.193-1.234 2.99a4.167 4.167 0 0 1-2.978 1.242 4.168 4.168 0 0 1-2.977-1.241l-14.613-14.684a9.694 9.694 0 0 1-3.404.613c-5.4 0-9.794-4.416-9.794-9.844 0-1.34.264-2.64.786-3.867zm9.008 12.223c1.14 0 2.246-.23 3.288-.681l.461-.201 15.315 15.39c1.032 1.037 2.83 1.037 3.862 0a2.73 2.73 0 0 0 .8-1.94c0-.734-.284-1.423-.8-1.941l-15.377-15.45.18-.455a8.344 8.344 0 0 0 .59-3.078c0-4.608-3.732-8.356-8.318-8.356-.67 0-1.333.08-1.981.242l4.542 4.572.004 5.98h-5.954l-4.63-4.65a8.332 8.332 0 0 0-.295 2.212c0 4.608 3.728 8.356 8.313 8.356zm20.971 11.39c.593 0 1.072.483 1.072 1.079 0 .594-.48 1.076-1.072 1.076a1.074 1.074 0 0 1-1.07-1.076c0-.596.48-1.078 1.07-1.078z"/></defs><g><g transform="translate(-1203 -2267)"><use fill="#d91619" xlink:href="#n75ba"/></g></g></svg>