<svg xmlns="http://www.w3.org/2000/svg" xmlns:xlink="http://www.w3.org/1999/xlink" width="68" height="49" viewBox="0 0 68 49"><defs><path id="9uuha" d="M725.867 2324c-3.364 0-6.165-2.468-6.706-5.698h-8.028c-.625 0-1.133-.51-1.133-1.14v-36.464c0-.63.508-1.14 1.133-1.14H754.2c.627 0 1.133.51 1.133 1.14v6.837h11.333c.386 0 .745.197.954.523l10.2 15.953c.118.184.18.4.18.617v12.535c0 .63-.507 1.14-1.133 1.14h-5.761c-.541 3.23-3.342 5.697-6.706 5.697-3.364 0-6.165-2.468-6.706-5.698h-25.122c-.54 3.23-3.341 5.698-6.705 5.698zm0-13.674c3.364 0 6.164 2.467 6.705 5.697h20.495v-2.279H733.8v-2.28h19.267v-25.069h-38.534v-2.279h38.534v-2.279h-40.8v29.628h5.666v2.279h-5.666v2.28h6.894c.54-3.23 3.341-5.698 6.706-5.698zm4.533 6.837c0-2.514-2.033-4.558-4.533-4.558-2.5 0-4.534 2.044-4.534 4.558 0 2.513 2.033 4.558 4.534 4.558 2.5 0 4.533-2.045 4.533-4.558zm34-6.837c3.364 0 6.165 2.467 6.706 5.697h4.627v-2.279h-3.4v-2.28h3.4v-6.501l-.214-.335h-16.786c-.626 0-1.133-.51-1.133-1.14v-10.256c0-.629.507-1.14 1.133-1.14h8.772l-1.457-2.278h-10.715v26.209h2.361c.541-3.23 3.342-5.698 6.706-5.698zm4.533 6.837c0-2.514-2.033-4.558-4.533-4.558-2.5 0-4.533 2.044-4.533 4.558 0 2.513 2.033 4.558 4.533 4.558 2.5 0 4.533-2.045 4.533-4.558zm-9.066-14.815h14.195l-5.129-8.02v.044h-9.066zm-35.134 13.675H727v2.28h-2.267zm38.534 0h2.266v2.28h-2.266zM714.533 2275H730.4v2.279h-15.867zm-4.533 0h2.267v2.279H710z"/></defs><g><g transform="translate(-710 -2275)"><use fill="#d91619" xlink:href="#9uuha"/></g></g></svg>