<svg xmlns="http://www.w3.org/2000/svg" xmlns:xlink="http://www.w3.org/1999/xlink" width="61" height="61" viewBox="0 0 61 61"><defs><path id="ahvya" d="M521.855 2290.532h1.967v1.968h-1.967zm-1.968-2.952h1.968v1.968h-1.968zm8.855 4.92h1.968v1.968h-1.968zm3.935-1.968h1.968v1.968h-1.968zm22.63 22.63a5.91 5.91 0 0 1 5.903-5.904 5.91 5.91 0 0 1 5.903 5.903 5.91 5.91 0 0 1-5.903 5.903 5.91 5.91 0 0 1-5.904-5.903zm1.967 0c0 .363.066.708.158 1.044l1.58-.913.985 1.704-1.591.919c.492.5 1.12.859 1.82 1.04v-1.827h1.967v1.828c.7-.182 1.329-.54 1.82-1.041l-1.591-.92.984-1.704 1.58.913c.093-.335.16-.68.16-1.044s-.067-.71-.158-1.045l-1.581.913-.984-1.704 1.59-.919a3.931 3.931 0 0 0-1.82-1.04v1.827h-1.967v-1.828c-.7.183-1.329.54-1.82 1.041l1.591.92-.983 1.704-1.581-.913c-.093.335-.159.68-.159 1.044zm16.726 7.87V2323h-61v-1.968h1.968v-17.71h1.967v-1.967h-1.967v-1.968h1.967v-3.936h8.855a4.928 4.928 0 0 1 4.82 3.936h2.067v1.968h-1.967v1.967h1.967v17.71h17.71v-17.71h1.968v-5.903h2.951v-11.229a6.84 6.84 0 0 1-.948-4.224l-5.531-6.222a6.698 6.698 0 0 1-.91-.136l-8.654 7.989a5.173 5.173 0 0 1-3.518 1.38 5.147 5.147 0 0 1-3.008-.985l-5.267 5.268-1.391-1.391 5.298-5.298a5.149 5.149 0 0 1-.818-2.852 5.148 5.148 0 0 1 1.615-3.692l11.457-10.884a6.884 6.884 0 0 1 5.772-3.143c3.111 0 5.744 2.075 6.595 4.912l8.893 9.939a6.884 6.884 0 0 1 3.206 5.81c0 1.29-.363 2.495-.984 3.53v11.228h2.951v5.903h1.968v17.71zm-55.097-21.645h9.658a2.948 2.948 0 0 0-2.77-1.968h-6.888zm0 3.935h9.839v-1.967h-9.839zm11.807 1.968h-13.775v5.903h9.84v1.968h-9.84v7.871h13.775v-7.87h-1.968v-1.969h1.968zm30.5-27.548a4.925 4.925 0 0 0-4.92 4.92 4.925 4.925 0 0 0 4.92 4.918 4.925 4.925 0 0 0 4.919-4.919 4.925 4.925 0 0 0-4.92-4.92zm0 11.806a6.844 6.844 0 0 1-3.936-1.243v9.114h7.871v-9.114a6.844 6.844 0 0 1-3.935 1.243zm-15.317-14.748a6.882 6.882 0 0 1-3.375-5.887l-8.989 8.54a3.194 3.194 0 0 0-1.001 2.292 3.192 3.192 0 0 0 .942 2.317 3.209 3.209 0 0 0 4.46.089zm3.514-.994a4.926 4.926 0 0 0 4.916-4.919 4.925 4.925 0 0 0-4.92-4.92 4.925 4.925 0 0 0-4.92 4.92 4.926 4.926 0 0 0 4.913 4.92zm11.803 1.968c.027 0 .054.004.08.004l-5.109-5.71a6.9 6.9 0 0 1-4.928 5.446l3.739 4.206c1.105-2.328 3.474-3.946 6.218-3.946zm-6.887 27.548h13.774v-3.935h-13.774zm15.741 1.968h-17.71v15.742h17.71z"/></defs><g><g transform="translate(-513 -2262)"><use fill="#d91619" xlink:href="#ahvya"/></g></g></svg>