<svg xmlns="http://www.w3.org/2000/svg" xmlns:xlink="http://www.w3.org/1999/xlink" width="27" height="26" viewBox="0 0 27 26"><defs><path id="u846a" d="M1072.812 598.851V611h-8.437c-.93 0-1.688-.778-1.688-1.736v-10.413zm15.188-5.207v2.604a.856.856 0 0 1-.844.868h-10.969v-3.472h-3.375v3.472h-10.968a.856.856 0 0 1-.844-.868v-2.604c0-.956.758-1.735 1.687-1.735h5.34a6.715 6.715 0 0 1-.944-.776c-1.358-1.407-1.358-3.698.002-5.106 1.321-1.368 3.627-1.368 4.95 0 .73.755 2.67 3.829 2.404 5.882h.122c-.269-2.053 1.672-5.127 2.404-5.882 1.322-1.368 3.627-1.37 4.95 0 1.362 1.408 1.362 3.699 0 5.106-.23.24-.559.507-.942.776h5.34c.93 0 1.687.78 1.687 1.735zm-17.162-6.393a1.767 1.767 0 0 0-2.556 0 1.931 1.931 0 0 0 0 2.658c.727.754 2.953 2 4.119 2 .241 0 .312-.057.312-.057.393-.419-.738-3.425-1.875-4.601zm9.88 2.658a1.928 1.928 0 0 0 0-2.658c-.686-.71-1.876-.707-2.556 0-1.138 1.176-2.268 4.182-1.875 4.6 0 .002.07.058.31.058 1.168 0 3.394-1.246 4.121-2zm5.594 8.942v10.413c0 .958-.756 1.736-1.687 1.736h-8.438V598.85z"/></defs><g><g transform="translate(-1061 -585)"><use fill="#d91619" xlink:href="#u846a"/></g></g></svg>