<svg 
 xmlns="http://www.w3.org/2000/svg"
 xmlns:xlink="http://www.w3.org/1999/xlink"
 width="19px" height="24px">
<path fill-rule="evenodd"  fill="rgb(0, 0, 0)"
 d="M16.206,24.000 L2.794,24.000 C1.253,24.000 -0.000,22.738 -0.000,21.187 L-0.000,11.625 C-0.000,10.074 1.253,8.812 2.794,8.812 L4.469,8.812 L4.469,4.958 C4.469,2.224 6.725,-0.000 9.498,-0.000 C12.271,-0.000 14.528,2.224 14.528,4.958 L14.528,8.812 L16.206,8.812 C17.747,8.812 19.000,10.074 19.000,11.625 L19.000,21.187 C19.000,22.738 17.747,24.000 16.206,24.000 ZM12.665,4.958 C12.665,3.258 11.244,1.875 9.498,1.875 C7.752,1.875 6.332,3.258 6.332,4.958 L6.332,8.812 L12.665,8.812 L12.665,4.958 ZM17.137,11.625 C17.137,11.108 16.719,10.688 16.206,10.688 L2.794,10.688 C2.281,10.688 1.863,11.108 1.863,11.625 L1.863,21.187 C1.863,21.704 2.281,22.125 2.794,22.125 L16.206,22.125 C16.719,22.125 17.137,21.704 17.137,21.187 L17.137,11.625 ZM10.430,16.601 L10.430,18.656 C10.430,19.174 10.013,19.594 9.498,19.594 C8.984,19.594 8.567,19.174 8.567,18.656 L8.567,16.598 C8.092,16.290 7.777,15.752 7.777,15.141 C7.777,14.183 8.548,13.406 9.500,13.406 C10.452,13.406 11.223,14.183 11.223,15.141 C11.223,15.754 10.907,16.292 10.430,16.601 Z"/>
</svg>