<svg xmlns="http://www.w3.org/2000/svg" xmlns:xlink="http://www.w3.org/1999/xlink" width="38" height="38" viewBox="0 0 38 38"><defs><path id="g9fla" d="M703.738 755.692c0 .744-.29 1.443-.815 1.969a2.763 2.763 0 0 1-1.967.815c-.743 0-1.442-.29-1.967-.815a2.788 2.788 0 0 1 0-3.937 2.764 2.764 0 0 1 1.967-.815c.743 0 1.441.29 1.967.815.525.526.815 1.225.815 1.968zm-1.113 0a1.66 1.66 0 0 0-.489-1.18 1.658 1.658 0 0 0-1.18-.49 1.672 1.672 0 0 0 0 3.34c.446 0 .865-.174 1.18-.489a1.66 1.66 0 0 0 .489-1.18zm8.456 7.347c0 .744-.289 1.443-.814 1.968a2.763 2.763 0 0 1-1.968.816c-.743 0-1.441-.29-1.966-.816a2.787 2.787 0 0 1 0-3.936 2.764 2.764 0 0 1 1.967-.815c.743 0 1.441.29 1.967.815.525.526.814 1.225.814 1.968zm-1.112 0a1.66 1.66 0 0 0-.49-1.18 1.658 1.658 0 0 0-1.18-.49 1.672 1.672 0 0 0 0 3.34c.446 0 .865-.174 1.18-.489a1.66 1.66 0 0 0 .49-1.18zm.297-8.528l-10.49 10.496a.554.554 0 0 1-.787 0 .557.557 0 0 1 0-.787l10.49-10.496a.556.556 0 1 1 .787.787zm16.793-13.855c-.916 1.713-2.429 3.684-4.15 5.406a26.348 26.348 0 0 1-2.057 1.855l.936 7.81c.013.104.02.213.02.325-.002.453-.101.948-.288 1.432-.196.501-.453.914-.763 1.226l-14.687 14.694a2.02 2.02 0 0 1-1.44.596h-.005a2.045 2.045 0 0 1-1.44-.596l-12.59-12.596a2.025 2.025 0 0 1-.595-1.442 2.04 2.04 0 0 1 .596-1.444l6.147-6.15a.553.553 0 0 1 .786 0 .556.556 0 0 1 0 .788l-6.146 6.15a.924.924 0 0 0-.27.656c0 .25.096.482.27.656l12.589 12.594c.173.174.406.27.655.27.25 0 .483-.096.656-.27l14.688-14.693c.19-.188.38-.503.512-.843.134-.34.212-.725.212-1.028 0-.068-.004-.132-.012-.192l-.858-7.16c-.73.522-1.446.965-2.127 1.305a9.854 9.854 0 0 1-.914.404 2.745 2.745 0 0 1-.761 1.438 2.744 2.744 0 0 1-1.954.81 2.744 2.744 0 0 1-1.953-.81 2.768 2.768 0 0 1 0-3.909 2.745 2.745 0 0 1 1.953-.81c.738 0 1.432.288 1.954.81.359.36.607.8.727 1.28.155-.066.306-.137.45-.21.783-.39 1.622-.928 2.473-1.578l-.209-1.743c-.03-.26-.179-.547-.4-.765-.217-.22-.504-.37-.764-.4l-10.168-1.22a1.55 1.55 0 0 0-.192-.01h-.006c-.301 0-.684.079-1.022.211-.34.131-.655.323-.843.513l-6.965 6.97a.555.555 0 0 1-.787 0 .558.558 0 0 1 0-.788l6.966-6.969c.312-.31.724-.567 1.226-.764a4.063 4.063 0 0 1 1.43-.287c.113 0 .223.007.326.02l7.806.936a26.228 26.228 0 0 1 1.854-2.057c1.719-1.72 3.692-3.23 5.416-4.144 1.995-1.059 3.447-1.22 4.198-.47.75.752.585 2.202-.48 4.193zm-13.33 8.817a.556.556 0 0 1 .787 0c.22.221.663.221 1.173.104a1.64 1.64 0 0 0-.453-.852 1.64 1.64 0 0 0-1.167-.483c-.44 0-.855.172-1.166.483a1.653 1.653 0 0 0 1.166 2.818 1.639 1.639 0 0 0 1.412-.797 3.363 3.363 0 0 1-.372.021c-.676 0-1.107-.234-1.38-.507a.557.557 0 0 1 0-.787zm13.023-12.222c-.605-.605-4.116.687-8.04 4.613-.467.467-.91.945-1.324 1.428l1.045.125a2.433 2.433 0 0 1 1.419.717c.404.406.652.898.717 1.42l.125 1.046c.48-.412.958-.855 1.428-1.325 1.647-1.648 3.09-3.523 3.956-5.144.855-1.6.955-2.599.674-2.88z"/></defs><g><g transform="translate(-690 -736)"><use fill="#d91619" xlink:href="#g9fla"/></g></g></svg>