<svg xmlns="http://www.w3.org/2000/svg" xmlns:xlink="http://www.w3.org/1999/xlink" width="33" height="31" viewBox="0 0 33 31"><defs><path id="88x8a" d="M728 937.962c0 .282-.224.51-.5.51h-2.782a1.572 1.572 0 0 1-1.485 1.09h-2.7v1.125c0 .883-.702 1.6-1.566 1.6h-4.3v.035c0 .883-.703 1.6-1.567 1.6h-.697c-.374 1.445.083 2.544.088 2.556a.52.52 0 0 1-.04.484.497.497 0 0 1-.418.231h-2.116l-2.207 8.054a.585.585 0 0 0 .094.506.558.558 0 0 0 .452.229h.577c.57 0 1.034.474 1.034 1.056v4.905c0 .583-.464 1.056-1.034 1.056H700.3c-.57 0-1.033-.473-1.033-1.056v-5.45c0-.282.224-.511.5-.511.492 0 .93-.339 1.062-.824l2.498-9.116c.139-.507.04-1.039-.272-1.459a1.61 1.61 0 0 0-1.3-.66h-.739c-3.169 0-5.806-2.445-6.003-5.566a5.991 5.991 0 0 1 1.564-4.471 5.797 5.797 0 0 1 4.257-1.886H713.1c.864 0 1.567.719 1.567 1.601v.034h4.3c.864 0 1.566.719 1.566 1.602v1.124h2.7c.69 0 1.276.457 1.485 1.09h2.782c.276 0 .5.228.5.51zm-16.625 5.961h-.562l-.616 2.248h1.17a5.588 5.588 0 0 1 .008-2.248zm2.292-10.321c0-.32-.255-.58-.567-.58h-12.266a4.74 4.74 0 0 0-3.528 1.563 4.966 4.966 0 0 0-1.295 3.706c.163 2.585 2.362 4.61 5.005 4.61h.738c.032 0 .063.002.094.003a.516.516 0 0 1 .052-.003h6.4c.276 0 .5.229.5.511a.506.506 0 0 1-.5.511h-4.482l.034.043c.502.677.662 1.534.438 2.352l-2.498 9.116c-.054.196-.134.38-.236.548h4.078c.276 0 .5.229.5.511a.506.506 0 0 1-.5.511h-5.367v4.94c0 .018.015.033.033.033h8.534a.034.034 0 0 0 .033-.033v-4.906a.034.034 0 0 0-.033-.034h-.578c-.495 0-.95-.23-1.248-.633a1.617 1.617 0 0 1-.26-1.4l3.204-11.697a.502.502 0 0 1 .481-.373h2.667c.312 0 .567-.26.567-.579zm5.866 1.635c0-.32-.254-.58-.566-.58h-.034v.58c0 .282-.224.51-.5.51a.505.505 0 0 1-.5-.51v-.58h-3.266v6.609h3.266v-4.394c0-.283.224-.511.5-.511s.5.228.5.51v4.395h.034c.312 0 .566-.26.566-.58zm4.267 2.725c0-.32-.254-.58-.567-.58h-2.7v1.159h2.7c.313 0 .567-.26.567-.58zm-20.333 0c0 .282-.224.51-.5.51h-4.8a.505.505 0 0 1-.5-.51c0-.283.224-.511.5-.511h4.8c.276 0 .5.228.5.51zm-4.733-1.635c0-.283.223-.511.5-.511h2.666c.276 0 .5.228.5.51a.506.506 0 0 1-.5.512h-2.667a.506.506 0 0 1-.5-.511zm3.666 3.27c0 .282-.224.51-.5.51h-2.667a.505.505 0 0 1-.5-.51c0-.282.224-.511.5-.511h2.667c.276 0 .5.229.5.51z"/></defs><g><g transform="translate(-695 -932)"><use fill="#d91619" xlink:href="#88x8a"/></g></g></svg>