<svg xmlns="http://www.w3.org/2000/svg" xmlns:xlink="http://www.w3.org/1999/xlink" width="32" height="34" viewBox="0 0 32 34"><defs><path id="zux3a" d="M367 954.924c0 2.248-1.849 4.076-4.12 4.076h-23.76c-2.272 0-4.12-1.828-4.12-4.076 0-2.247 1.848-4.075 4.12-4.075h8.353v-5.324c0-.304.25-.551.557-.551h5.94c.307 0 .557.247.557.55v5.325h1.262v-5.324c0-.304.25-.551.557-.551h5.94c.307 0 .556.247.556.55v5.325h.037c2.272 0 4.12 1.828 4.12 4.075zm-10.098-4.075h4.826v-4.774h-1.856v1.212c0 .304-.249.55-.557.55a.554.554 0 0 1-.556-.55v-1.212h-1.857zm-8.315 0h4.826v-4.774h-1.856v1.212c0 .304-.25.55-.557.55a.554.554 0 0 1-.557-.55v-1.212h-1.856zm17.3 4.075c0-1.64-1.35-2.974-3.008-2.974h-23.758c-1.658 0-3.007 1.334-3.007 2.974 0 1.64 1.349 2.974 3.007 2.974h23.758c1.658 0 3.007-1.334 3.007-2.974zm-20.27 0c0 .952-.783 1.726-1.745 1.726a1.737 1.737 0 0 1-1.744-1.726c0-.951.782-1.725 1.744-1.725s1.745.774 1.745 1.725zm-1.114 0a.628.628 0 0 0-.63-.624.628.628 0 0 0-.632.624c0 .344.283.624.631.624.348 0 .631-.28.631-.624zm-3.638 0c0 .952-.782 1.726-1.744 1.726a1.737 1.737 0 0 1-1.745-1.726c0-.951.783-1.725 1.745-1.725.962 0 1.744.774 1.744 1.725zm-1.113 0a.629.629 0 0 0-.631-.624.628.628 0 0 0-.631.624c0 .344.283.624.63.624.349 0 .632-.28.632-.624zm10.617 0c0 .952-.783 1.726-1.745 1.726a1.737 1.737 0 0 1-1.745-1.726c0-.951.783-1.725 1.745-1.725.962 0 1.745.774 1.745 1.725zm-1.114 0a.629.629 0 0 0-.631-.624.628.628 0 0 0-.631.624c0 .344.283.624.631.624.348 0 .631-.28.631-.624zm5.866 0c0 .952-.783 1.726-1.745 1.726a1.737 1.737 0 0 1-1.745-1.726c0-.951.783-1.725 1.745-1.725.962 0 1.745.774 1.745 1.725zm-1.114 0a.628.628 0 0 0-.631-.624.628.628 0 0 0-.631.624c0 .344.283.624.63.624.349 0 .632-.28.632-.624zm5.865 0c0 .952-.782 1.726-1.744 1.726a1.737 1.737 0 0 1-1.745-1.726c0-.951.782-1.725 1.745-1.725.962 0 1.744.774 1.744 1.725zm-1.113 0a.628.628 0 0 0-.631-.624.628.628 0 0 0-.632.624c0 .344.284.624.632.624.348 0 .63-.28.63-.624zm5.865 0c0 .952-.783 1.726-1.745 1.726a1.737 1.737 0 0 1-1.744-1.726c0-.951.782-1.725 1.744-1.725s1.745.774 1.745 1.725zm-1.114 0a.628.628 0 0 0-.63-.624.628.628 0 0 0-.632.624c0 .344.283.624.631.624.348 0 .631-.28.631-.624zm-26.134-29.374c0-.303.25-.55.557-.55h9.503c.308 0 .557.247.557.55 0 .305-.25.552-.557.552h-1.819v1.799c0 .627-.516 1.138-1.15 1.138h-.038v3.561a1.73 1.73 0 0 1-1.188 1.635v2.605a1.73 1.73 0 0 1 1.155 1.968l2.722 1.539a.55.55 0 0 1 .28.478v2.35a.547.547 0 0 1-.162.39l-1.025 1.013v4.471c0 .305-.25.551-.557.551h-5.94a.554.554 0 0 1-.556-.55v-4.472l-1.025-1.014a.547.547 0 0 1-.163-.39v-2.35a.55.55 0 0 1 .28-.477l2.723-1.539a1.73 1.73 0 0 1 1.155-1.968v-2.605a1.73 1.73 0 0 1-1.188-1.635v-3.561h-.037c-.635 0-1.151-.51-1.151-1.138v-1.8h-1.82a.554.554 0 0 1-.556-.55zm7.721 22.949v-4.773h-1.856v1.211c0 .304-.25.55-.557.55a.554.554 0 0 1-.556-.55v-1.211h-1.857v4.773zm1.188-7.354l-2.442-1.38a1.748 1.748 0 0 1-1.159.436c-.444 0-.85-.165-1.158-.437l-2.443 1.38v1.803l.093.091a.556.556 0 0 1 .539-.414h5.94c.259 0 .476.176.538.414l.092-.091zm-2.97-2.67a.629.629 0 0 0-.63-.624.628.628 0 0 0-.632.624c0 .344.283.624.631.624.348 0 .632-.28.632-.624zm0-5.875v-1.211h-1.262v1.211c0 .345.283.624.631.624.348 0 .632-.28.632-.624zm0-3.561h-1.262v1.248h1.263zm-2.45-2.938v1.8c0 .02.017.036.038.036h3.563c.02 0 .037-.016.037-.036v-1.8z"/></defs><g><g transform="translate(-335 -925)"><use fill="#d91619" xlink:href="#zux3a"/></g></g></svg>