<svg xmlns="http://www.w3.org/2000/svg" xmlns:xlink="http://www.w3.org/1999/xlink" width="38" height="30" viewBox="0 0 38 30"><defs><path id="poxxa" d="M353.617 745.578v2.17c0 1.693-1.415 3.071-3.155 3.071-1.74 0-3.155-1.378-3.155-3.072v-2.169c0-1.694 1.415-3.072 3.155-3.072 1.74 0 3.155 1.378 3.155 3.072zm-1.122 2.348a3.192 3.192 0 0 1-2.033.725 3.192 3.192 0 0 1-2.033-.725c.093 1.012.969 1.81 2.033 1.81s1.94-.798 2.033-1.81zm.009-2.348c0-1.096-.916-1.988-2.042-1.988s-2.042.892-2.042 1.988c0 1.097.916 1.988 2.042 1.988s2.042-.891 2.042-1.988zm-1.485-.722v1.445c0 .3-.25.543-.557.543a.55.55 0 0 1-.557-.543v-1.445c0-.3.25-.543.557-.543a.55.55 0 0 1 .557.543zm14.477-3.977v2.178c-.005 2.687-2.251 4.87-5.011 4.87-2.764 0-5.012-2.188-5.012-4.879v-2.169c0-2.69 2.248-4.88 5.012-4.88 2.763 0 5.011 2.19 5.011 4.88zm-1.275 3.248a5.058 5.058 0 0 1-3.736 1.632 5.06 5.06 0 0 1-3.737-1.632c.479 1.568 1.972 2.716 3.737 2.716 1.764 0 3.257-1.147 3.736-2.716zm.161-3.248c0-2.092-1.748-3.795-3.897-3.795-2.15 0-3.898 1.703-3.898 3.795 0 2.093 1.748 3.796 3.898 3.796 2.149 0 3.897-1.703 3.897-3.796zm-3.34-1.445v2.892c0 .299-.25.542-.558.542a.55.55 0 0 1-.556-.543v-2.892c0-.299.25-.542.557-.542a.55.55 0 0 1 .557.543zm8.735 18.528a.548.548 0 0 1-.044.039 104.85 104.85 0 0 1-5.46 3.963c-4.029 2.716-6.727 4.036-8.248 4.036-2.892 0-10.474-1.547-12.804-2.037v.383c0 .3-.25.542-.557.542h-1.67v.57c0 .299-.249.542-.556.542h-6.881a.55.55 0 0 1-.557-.542c0-.3.25-.542.557-.542h4.097v-.542c0-.3.25-.543.557-.543a.55.55 0 0 1 .557.543v.542h1.113v-13.01h-5.768v11.383c0 .3-.249.542-.556.542a.55.55 0 0 1-.557-.542v-11.924c0-.3.25-.542.557-.542h6.88a.55.55 0 0 1 .557.542v.542h1.67a.55.55 0 0 1 .557.542v.453c4.048-.55 6.311.216 10.604 1.673 1.31.444 2.794.948 4.596 1.509l.023.008.022.008.006.002c.002 0 .004.002.005.003 1.364.562 1.675 1.79 1.376 2.761-.284.923-1.153 1.749-2.335 1.749-.156 0-.317-.015-.483-.045-1.068-.195-7.698-1.07-7.765-1.08a.545.545 0 0 1-.477-.61.554.554 0 0 1 .626-.464c.274.036 6.725.888 7.822 1.088.815.15 1.372-.387 1.545-.949.284-.924-.461-1.333-.73-1.447a181.715 181.715 0 0 1-4.597-1.51c-4.305-1.46-6.36-2.156-10.238-1.601v8.856c1.956.413 9.953 2.063 12.804 2.063 2.57 0 10.22-5.569 12.985-7.74.407-.403 1.24-1.389.707-2.287-.46-.776-1.484-1.043-2.282-.595a.61.61 0 0 1-.031.016c-.033.016-3.276 1.574-5.937 2.664a.563.563 0 0 1-.73-.289.537.537 0 0 1 .298-.71c2.539-1.04 5.619-2.514 5.86-2.63 1.327-.733 3.022-.286 3.786 1.002.644 1.084.306 2.436-.904 3.615zm-27.67 5.319v-10.29h-1.113v10.813h1.113v-.523z"/></defs><g><g transform="translate(-333 -736)"><use fill="#d91619" xlink:href="#poxxa"/></g></g></svg>