<svg xmlns="http://www.w3.org/2000/svg" xmlns:xlink="http://www.w3.org/1999/xlink" width="32" height="39" viewBox="0 0 32 39"><defs><path id="wpu4a" d="M367 836.08v8.873c0 4.487-3.622 8.138-8.073 8.138h-2.405a9.248 9.248 0 0 1-2.175 1.21l1.197 5.613h4.381c.813 0 1.474.667 1.474 1.486v4.466a.569.569 0 0 1-.567.571.569.569 0 0 1-.567-.571V861.4a.346.346 0 0 0-.34-.343h-17.85a.346.346 0 0 0-.34.343v6.114c0 .186.155.343.34.343h17.85c.185 0 .34-.157.34-.343v-1.648-.076c0-.315.254-.571.567-.571.313 0 .567.256.567.571v1.724c0 .82-.661 1.486-1.474 1.486h-17.85a1.481 1.481 0 0 1-1.474-1.486V861.4c0-.82.661-1.486 1.473-1.486h4.381l1.198-5.612a9.268 9.268 0 0 1-2.175-1.21h-2.405c-4.451 0-8.073-3.652-8.073-8.14v-8.872c0-1.097.885-1.99 1.973-1.99h4.742v-.078h-1.058a1.481 1.481 0 0 1-1.474-1.485v-1.042c0-.819.661-1.485 1.474-1.485h8.977a.57.57 0 0 1 .567.571.569.569 0 0 1-.567.571h-8.977a.346.346 0 0 0-.34.343v1.042c0 .185.155.342.34.342h20.686c.185 0 .34-.157.34-.342v-1.042a.346.346 0 0 0-.34-.343h-9.064a.569.569 0 0 1-.567-.57c0-.317.254-.572.567-.572h9.064c.813 0 1.474.666 1.474 1.485v1.042c0 .818-.661 1.485-1.474 1.485h-1.058v.079h4.742c1.088 0 1.973.892 1.973 1.99zm-29.03 1.005v7.868c0 2.769 2.181 5.032 4.902 5.14a9.36 9.36 0 0 1-1.157-4.522v-8.486zm5.103 14.864h1.13a9.347 9.347 0 0 1-.592-.71h-.538c-3.439 0-6.237-2.82-6.237-6.286v-8.44a.57.57 0 0 1 .567-.571h4.312v-.709h-4.742c-.463 0-.84.38-.84.847v8.873c0 3.857 3.114 6.996 6.94 6.996zm10.19 2.702a9.344 9.344 0 0 1-2.263.28c-.786 0-1.56-.103-2.262-.28l-1.123 5.263h6.77zm5.888-9.08v-11.56h-16.303v11.56c0 4.536 3.662 8.218 8.152 8.218 4.484 0 8.152-3.677 8.151-8.218zm-.023 4.521c2.72-.107 4.902-2.37 4.902-5.14v-7.867h-3.745v8.486a9.36 9.36 0 0 1-1.157 4.521zm6.738-5.14v-8.872a.844.844 0 0 0-.84-.847h-4.741v.709h4.312a.57.57 0 0 1 .566.571v8.44c0 3.466-2.797 6.287-6.236 6.287h-.538a9.375 9.375 0 0 1-.593.709h1.13c3.827 0 6.94-3.139 6.94-6.996zm-8.663 19.505a.57.57 0 0 1-.566.571h-11.274a.57.57 0 0 1-.566-.571.57.57 0 0 1 .566-.571h11.274c.313 0 .566.256.566.571zm-11.008-16.646v-9.227c-.147.05-.301.106-.463.167a1.24 1.24 0 0 1-.44.093.738.738 0 0 1-.548-.219.752.752 0 0 1-.216-.552c0-.158.04-.299.121-.422a.876.876 0 0 1 .37-.304l1.682-.563a.721.721 0 0 1 .265-.052c.22 0 .402.075.547.226.144.15.216.334.216.552v10.301a.746.746 0 0 1-.224.545.74.74 0 0 1-.547.226.731.731 0 0 1-.54-.226.745.745 0 0 1-.223-.545zm3.322-5.165c0-.934.08-1.768.242-2.502.162-.733.394-1.354.698-1.864.303-.508.677-.897 1.123-1.166.445-.27.955-.404 1.527-.404.573 0 1.082.137 1.528.41.445.275.82.668 1.127 1.18.306.51.538 1.133.697 1.867.16.733.239 1.56.239 2.479s-.08 1.745-.239 2.479c-.159.733-.391 1.356-.697 1.867-.306.512-.682.905-1.127 1.179a2.852 2.852 0 0 1-1.528.411 2.894 2.894 0 0 1-1.527-.404c-.446-.27-.82-.657-1.123-1.163-.304-.507-.536-1.128-.698-1.864-.162-.737-.242-1.571-.242-2.505zm3.59-4.366c-.342 0-.642.112-.9.334-.256.222-.47.526-.638.912a5.595 5.595 0 0 0-.378 1.382 11.342 11.342 0 0 0-.125 1.738c0 .632.042 1.216.125 1.752.083.537.21.997.382 1.383.171.385.384.686.639.904.254.217.553.326.895.326.348 0 .65-.111.907-.334.257-.222.469-.527.635-.915.167-.388.292-.848.375-1.382a11.28 11.28 0 0 0 .125-1.734c0-.618-.043-1.193-.129-1.727a5.952 5.952 0 0 0-.378-1.386c-.166-.39-.378-.697-.635-.919a1.332 1.332 0 0 0-.9-.334z"/></defs><g><g transform="translate(-335 -830)"><use fill="#d91619" xlink:href="#wpu4a"/></g></g></svg>