<svg xmlns="http://www.w3.org/2000/svg" xmlns:xlink="http://www.w3.org/1999/xlink" width="34" height="32" viewBox="0 0 34 32"><defs><path id="zaeka" d="M1080.343 850.05c.251.196.31.545.135.808l-.008.012a.634.634 0 0 1-.812.208l-5.185-2.626a1.89 1.89 0 0 1-.548.09c-1.031 0-1.87-.818-1.87-1.823 0-.712.425-1.323 1.037-1.623l2.482-7.99a.607.607 0 0 1 .715-.403l.015.003a.59.59 0 0 1 .462.67l-1.363 8.24c.199.253.328.555.369.886zm-6.418-2.431c.51 0 .923-.404.923-.9 0-.497-.414-.9-.923-.9a.913.913 0 0 0-.924.9c0 .496.415.9.924.9zm14.075-.9c0 6.1-4.107 11.28-9.767 13.059v-1.954c4.597-1.7 7.875-6.036 7.875-11.105 0-6.548-5.466-11.875-12.183-11.875-6.718 0-12.184 5.327-12.184 11.875 0 .656.058 1.3.164 1.928h-1.914a13.423 13.423 0 0 1-.142-1.928c0-7.565 6.314-13.72 14.076-13.72 7.76 0 14.075 6.155 14.075 13.72zm-11.186 10.794v.784H1054v-7.193c0-.594.492-1.074 1.102-1.074h12.62c.61 0 1.107.48 1.107 1.074v.798h2.185c.383 0 .757.148 1.032.415l4.332 4.177c.28.267.435.636.436 1.019zm-2.205-1.167l-3.391-3.158a.203.203 0 0 0-.123-.046h-.8a.168.168 0 0 0-.17.166v3.158c0 .092.076.166.17.166h4.196c.156 0 .232-.184.118-.286zm2.205 2.545v2.379c0 .593-.494 1.075-1.103 1.075h-1.18c-.213-1.426-1.473-2.522-2.995-2.522-1.518 0-2.779 1.096-2.992 2.522h-5.98c-.213-1.426-1.474-2.522-2.992-2.522s-2.779 1.096-2.992 2.522h-1.477c-.61 0-1.103-.482-1.103-1.075v-2.38zm-2.99 3.878c0 1.23-1.022 2.23-2.285 2.23-1.263 0-2.289-1-2.289-2.23 0-1.231 1.026-2.227 2.29-2.227 1.262 0 2.284.996 2.284 2.227zm-1.145 0a1.13 1.13 0 0 0-1.14-1.116c-.634 0-1.144.502-1.144 1.115 0 .618.51 1.116 1.144 1.116.63 0 1.14-.498 1.14-1.116zm-10.822 0c0 1.23-1.022 2.23-2.285 2.23-1.263 0-2.29-1-2.29-2.23 0-1.231 1.027-2.227 2.29-2.227 1.263 0 2.285.996 2.285 2.227zm-1.14 0c0-.614-.516-1.116-1.145-1.116-.634 0-1.145.502-1.145 1.115 0 .618.511 1.116 1.145 1.116.63 0 1.145-.498 1.145-1.116z"/></defs><g><g transform="translate(-1054 -833)"><use fill="#d91619" xlink:href="#zaeka"/></g></g></svg>