<svg xmlns="http://www.w3.org/2000/svg" xmlns:xlink="http://www.w3.org/1999/xlink" width="37" height="37" viewBox="0 0 37 37"><defs><path id="mp52a" d="M1078.417 752.097a1.816 1.816 0 0 1-.554 2.572 1.816 1.816 0 0 1-.618 2.472 1.817 1.817 0 0 1-1.563 2.738h-9.46a1.198 1.198 0 0 1-1.047.617h-3.708c-.66 0-1.197-.537-1.197-1.197v-9.888c0-.66.537-1.197 1.197-1.197h3.708c.201 0 .391.05.558.139.34-.27.615-.54.798-.735.35-.373.748-.633 1.184-.775a6.033 6.033 0 0 0 2.3-1.345c.532-.506.75-.932.77-1.056a2.098 2.098 0 0 1 .625-1.491c.401-.398.932-.615 1.498-.615h.02a2.036 2.036 0 0 1 1.52.697c.43.486.636 1.147.563 1.812-.12 1.089-.74 2.303-1.688 3.369h3.904a2.124 2.124 0 1 1 1.19 3.883zm-.225-1.759a.966.966 0 0 0-.965-.965h-5.348a.58.58 0 0 1-.365-1.03c1.298-1.05 2.219-2.474 2.346-3.625a1.2 1.2 0 0 0-.28-.916.882.882 0 0 0-.662-.308.97.97 0 0 0-.692.28.947.947 0 0 0-.283.678c0 .486-.396 1.166-1.06 1.818a7.157 7.157 0 0 1-2.81 1.675c-.248.08-.483.237-.697.466a8.779 8.779 0 0 1-1.008.917c.001.027.004.055.004.083v1.236a.58.58 0 1 1-1.159 0v-1.236a.039.039 0 0 0-.038-.038h-3.708a.039.039 0 0 0-.039.038v9.888c0 .02.018.038.04.038h3.707a.039.039 0 0 0 .038-.038v-6.18a.58.58 0 1 1 1.159 0v5.6h9.31a.658.658 0 0 0 0-1.313.58.58 0 0 1 0-1.158h.618a.658.658 0 0 0 0-1.314.58.58 0 0 1 0-1.159h.618a.657.657 0 0 0 0-1.312.58.58 0 0 1 0-1.16h.309a.966.966 0 0 0 .965-.965zm-14.289 7.103c0 .32-.262.583-.582.583a.584.584 0 0 1-.582-.583c0-.32.262-.582.582-.582.32 0 .582.263.582.582zm24.058-2.307a.58.58 0 0 1-.09.567l-1.76 2.198.133 2.812a.58.58 0 0 1-.26.511l-2.354 1.546-.742 2.716a.579.579 0 0 1-.406.405l-2.716.743-1.545 2.353a.58.58 0 0 1-.512.26l-2.812-.132-2.197 1.76a.579.579 0 0 1-.567.09l-2.633-.995-2.633.995a.578.578 0 0 1-.567-.09l-2.198-1.76-2.812.133a.58.58 0 0 1-.511-.26l-1.546-2.354-2.715-.743a.579.579 0 0 1-.406-.405l-.743-2.716-2.353-1.546a.58.58 0 0 1-.26-.511l.133-2.812-1.76-2.198a.58.58 0 0 1-.09-.567l.995-2.633-.995-2.634a.58.58 0 0 1 .09-.567l1.76-2.197-.133-2.812a.579.579 0 0 1 .26-.511l2.354-1.546.742-2.716a.58.58 0 0 1 .406-.405l2.716-.743 1.545-2.353a.578.578 0 0 1 .512-.261l2.812.132 2.197-1.76a.578.578 0 0 1 .567-.09l2.633.995 2.633-.995a.58.58 0 0 1 .567.09l2.197 1.76 2.812-.132a.58.58 0 0 1 .512.26l1.545 2.354 2.716.742a.58.58 0 0 1 .406.406l.742 2.716 2.353 1.545a.58.58 0 0 1 .261.512l-.133 2.812 1.76 2.197a.58.58 0 0 1 .09.567l-.995 2.634zm-2.156-2.838l.956-2.53-1.69-2.11a.579.579 0 0 1-.127-.389l.127-2.7-2.26-1.485a.58.58 0 0 1-.24-.331l-.714-2.608-2.607-.714a.579.579 0 0 1-.332-.24l-1.484-2.26-2.7.127a.58.58 0 0 1-.39-.126l-2.11-1.69-2.53.955a.581.581 0 0 1-.409 0l-2.529-.956-2.11 1.69a.58.58 0 0 1-.39.127l-2.7-.127-1.484 2.26a.58.58 0 0 1-.332.24l-2.607.714-.714 2.608a.578.578 0 0 1-.24.331l-2.26 1.485.127 2.7a.579.579 0 0 1-.126.39l-1.69 2.11.955 2.53a.58.58 0 0 1 0 .409l-.956 2.529 1.69 2.11c.089.11.134.249.127.39l-.127 2.7 2.26 1.485a.58.58 0 0 1 .24.331l.714 2.608 2.607.714a.578.578 0 0 1 .332.24l1.484 2.26 2.7-.127c.141-.007.28.038.39.126l2.11 1.69 2.53-.955a.584.584 0 0 1 .409 0l2.529.956 2.11-1.69a.578.578 0 0 1 .39-.127l2.7.127 1.484-2.26a.578.578 0 0 1 .332-.24l2.607-.714.714-2.608a.58.58 0 0 1 .24-.331l2.26-1.485-.127-2.7a.579.579 0 0 1 .126-.39l1.69-2.11-.955-2.53a.58.58 0 0 1 0-.409zm-5.455-8.98a.576.576 0 0 1-.819-.035 13.887 13.887 0 0 0-.838-.838.58.58 0 0 1 .783-.854 15.065 15.065 0 0 1 .909.908.58.58 0 0 1-.035.819zm-2.754-2.508a.579.579 0 0 1-.8.177 13.68 13.68 0 0 0-8.728-2.052 13.66 13.66 0 0 0-8.227 3.92 13.592 13.592 0 0 0-3.981 9.085c-.138 3.41.99 6.72 3.179 9.321a.58.58 0 1 1-.887.746 14.745 14.745 0 0 1-3.45-10.114 14.75 14.75 0 0 1 4.32-9.858 14.826 14.826 0 0 1 8.927-4.253 14.847 14.847 0 0 1 9.47 2.228c.27.172.35.53.177.8zm6.598 13.218a14.824 14.824 0 0 1-4.253 8.927 14.747 14.747 0 0 1-10.464 4.333c-3.484 0-6.839-1.218-9.507-3.463a.58.58 0 0 1 .746-.887 13.585 13.585 0 0 0 9.32 3.18 13.592 13.592 0 0 0 9.085-3.982 13.664 13.664 0 0 0 3.92-8.228 13.685 13.685 0 0 0-2.052-8.729.58.58 0 1 1 .977-.622 14.848 14.848 0 0 1 2.228 9.471z"/></defs><g><g transform="translate(-1051 -734)"><use fill="#d91619" xlink:href="#mp52a"/></g></g></svg>