<svg xmlns="http://www.w3.org/2000/svg" xmlns:xlink="http://www.w3.org/1999/xlink" width="33" height="34" viewBox="0 0 33 34"><defs><path id="ig6za" d="M725.96 864.668a.53.53 0 0 1-.49.332h-31.94a.533.533 0 0 1-.53-.537v-32.356c0-.217.13-.413.327-.496a.525.525 0 0 1 .578.117l31.94 32.355a.542.542 0 0 1 .114.585zm-6.461-.742h4.691l-30.13-30.523v30.523h3.18v-1.754c0-.296.237-.536.53-.536.292 0 .53.24.53.536v1.754h3.18v-1.754c0-.296.237-.536.53-.536.292 0 .53.24.53.536v1.754h3.18v-1.754c0-.296.237-.536.53-.536.292 0 .53.24.53.536v1.754h3.18v-1.754c0-.296.236-.536.53-.536.292 0 .53.24.53.536v1.754h3.179v-1.754c0-.296.237-.536.53-.536.293 0 .53.24.53.536v1.754h3.18v-1.754c0-.296.237-.536.53-.536.292 0 .53.24.53.536zm-3.715-3.553a.53.53 0 0 1-.49.332H697.77a.533.533 0 0 1-.53-.537v-17.692c0-.216.129-.412.327-.495a.525.525 0 0 1 .577.115l17.524 17.692a.542.542 0 0 1 .116.585zm-1.772-.742L698.3 843.77v15.862zm-9.367-13.4a.526.526 0 0 1-.749 0l-7.914-8.017a.542.542 0 0 1 0-.76.525.525 0 0 1 .75 0l7.913 8.018c.207.21.207.55 0 .76zm2.827 3.15a.525.525 0 0 1-.75 0l-1.413-1.432a.542.542 0 0 1 0-.76.525.525 0 0 1 .75 0l1.413 1.432c.207.21.207.55 0 .76zm18.528.298a.54.54 0 0 1-.156.38l-5.596 5.67a.525.525 0 0 1-.75 0l-3.997-4.05-12.232-12.392-.007-.008a.408.408 0 0 1-.025-.027l-.01-.014a.555.555 0 0 1-.02-.026l-.01-.016-.016-.027-.01-.017a.555.555 0 0 1-.012-.028l-.008-.018-.01-.03a.46.46 0 0 1-.01-.034l-.007-.03v-.001-.002l-1.398-7.078a.503.503 0 0 1-.009-.058v-.008l-.001-.016-.002-.028.001-.019a.5.5 0 0 1 .001-.017l.001-.017c0-.01.003-.02.004-.03l.002-.014a.561.561 0 0 1 .014-.057v-.002a.554.554 0 0 1 .019-.052l.003-.007.004-.01a.373.373 0 0 1 .012-.024l.002-.005.01-.016.007-.012.008-.013c0-.001 0-.002.002-.003a.54.54 0 0 1 .017-.025l.008-.01.005-.007a.711.711 0 0 1 .026-.029l.009-.01c.007-.008.016-.015.024-.022l.014-.013.01-.007.01-.008a.032.032 0 0 1 .003-.003l.018-.013.018-.011.013-.009.013-.007.032-.016a.525.525 0 0 1 .126-.04l.011-.002c.011-.002.022-.004.033-.004l.007-.001h.008l.016-.001.02-.001.029.001.013.001h.009l.059.01 6.985 1.415h.003l.012.004a.607.607 0 0 1 .039.01l.018.006.03.011.022.01a.463.463 0 0 1 .026.013l.024.014.02.013c.01.006.018.013.027.02l.015.011a.51.51 0 0 1 .03.028l.008.008.002.001v.001l12.231 12.39 3.997 4.049c.1.1.156.237.156.38zm-17.81-14.618l11.483 11.632 1.05-1.063-11.483-11.632zm-.75.759l-.624.632v.001l-.624.632 11.483 11.633 1.249-1.266zm-3.273-3.062l-.898-.182-.35-.07.25 1.263zm-.198 5.06l1.098-1.112.001-.001.998-1.011 2.099-2.126-2.748-.557-1.998 2.024zm11.907 12.722l1.05-1.063-11.484-11.633-1.05 1.063zm8.844-.86l-3.248-3.29-3.422 3.467-1.424 1.442 3.247 3.29zm-1.702.56a.524.524 0 0 1-.75 0l-1.413-1.432a.542.542 0 0 1 0-.76.526.526 0 0 1 .75 0l1.413 1.432c.207.21.207.55 0 .76zm2.826-11.832l-3.797 3.847a.527.527 0 0 1-.75 0l-3.997-4.05-1.999-2.024a1.99 1.99 0 0 1 0-2.785l1.8-1.822a1.928 1.928 0 0 1 2.747 0l1.999 2.025 3.997 4.05c.207.21.207.549 0 .759zm-8.169-1.342l3.048-3.087-1.624-1.645a.876.876 0 0 0-1.25 0l-1.798 1.822a.904.904 0 0 0 0 1.265zm7.045.962l-3.248-3.29-3.048 3.087 3.248 3.29zm-1.274.38a.525.525 0 0 1-.75 0l-1.598-1.62a.542.542 0 0 1 0-.76.525.525 0 0 1 .75 0l1.598 1.62c.207.21.207.55 0 .76z"/></defs><g><g transform="translate(-693 -831)"><use fill="#d91619" xlink:href="#ig6za"/></g></g></svg>